<?xml version="1.0" encoding="UTF-8" standalone="no"?>
<!DOCTYPE svg PUBLIC "-//W3C//DTD SVG 1.1//EN"
 "http://www.w3.org/Graphics/SVG/1.1/DTD/svg11.dtd">
<!-- Generated by graphviz version 13.1.2 (20250808.2320)
 -->
<!-- Title: dependency&#45;cruiser output Pages: 1 -->
<svg width="443pt" height="226pt"
 viewBox="0.00 0.00 443.00 226.00" xmlns="http://www.w3.org/2000/svg" xmlns:xlink="http://www.w3.org/1999/xlink">
<g id="graph0" class="graph" transform="scale(1 1) rotate(0) translate(4 222)">
<title>dependency&#45;cruiser output</title>
<polygon fill="white" stroke="none" points="-4,4 -4,-222 438.5,-222 438.5,4 -4,4"/>
<g id="clust1" class="cluster">
<title>cluster_src</title>
<path fill="#ffffff" stroke="black" stroke-width="2" d="M20,-8C20,-8 414.5,-8 414.5,-8 420.5,-8 426.5,-14 426.5,-20 426.5,-20 426.5,-198 426.5,-198 426.5,-204 420.5,-210 414.5,-210 414.5,-210 20,-210 20,-210 14,-210 8,-204 8,-198 8,-198 8,-20 8,-20 8,-14 14,-8 20,-8"/>
<text xml:space="preserve" text-anchor="middle" x="217.25" y="-197.45" font-family="Helvetica,sans-Serif" font-weight="bold" font-size="9.00">src</text>
</g>
<g id="clust2" class="cluster">
<title>cluster_src/lib</title>
<path fill="#ffffff" stroke="black" stroke-width="2" d="M28,-16C28,-16 406.5,-16 406.5,-16 412.5,-16 418.5,-22 418.5,-28 418.5,-28 418.5,-146 418.5,-146 418.5,-152 412.5,-158 406.5,-158 406.5,-158 28,-158 28,-158 22,-158 16,-152 16,-146 16,-146 16,-28 16,-28 16,-22 22,-16 28,-16"/>
<text xml:space="preserve" text-anchor="middle" x="217.25" y="-145.45" font-family="Helvetica,sans-Serif" font-weight="bold" font-size="9.00">lib</text>
</g>
<g id="clust3" class="cluster">
<title>cluster_src/lib/services</title>
<path fill="#ffffff" stroke="black" stroke-width="2" d="M36,-24C36,-24 318.75,-24 318.75,-24 324.75,-24 330.75,-30 330.75,-36 330.75,-36 330.75,-94 330.75,-94 330.75,-100 324.75,-106 318.75,-106 318.75,-106 36,-106 36,-106 30,-106 24,-100 24,-94 24,-94 24,-36 24,-36 24,-30 30,-24 36,-24"/>
<text xml:space="preserve" text-anchor="middle" x="177.38" y="-93.45" font-family="Helvetica,sans-Serif" font-weight="bold" font-size="9.00">services</text>
</g>
<g id="clust4" class="cluster">
<title>cluster_src/lib/utils</title>
<path fill="#ffffff" stroke="black" stroke-width="2" d="M350.75,-46C350.75,-46 398.5,-46 398.5,-46 404.5,-46 410.5,-52 410.5,-58 410.5,-58 410.5,-86 410.5,-86 410.5,-92 404.5,-98 398.5,-98 398.5,-98 350.75,-98 350.75,-98 344.75,-98 338.75,-92 338.75,-86 338.75,-86 338.75,-58 338.75,-58 338.75,-52 344.75,-46 350.75,-46"/>
<text xml:space="preserve" text-anchor="middle" x="374.62" y="-85.45" font-family="Helvetica,sans-Serif" font-weight="bold" font-size="9.00">utils</text>
</g>
<!-- src/lib/di&#45;registry.ts -->
<g id="node1" class="node">
<title>src/lib/di&#45;registry.ts</title>
<g id="a_node1"><a xlink:href="src/lib/di-registry.ts" xlink:title="di&#45;registry.ts">
<path fill="#ddfeff" stroke="black" d="M225.58,-131.88C225.58,-131.88 171.92,-131.88 171.92,-131.88 168.96,-131.88 166,-128.92 166,-125.96 166,-125.96 166,-120.04 166,-120.04 166,-117.08 168.96,-114.12 171.92,-114.12 171.92,-114.12 225.58,-114.12 225.58,-114.12 228.54,-114.12 231.5,-117.08 231.5,-120.04 231.5,-120.04 231.5,-125.96 231.5,-125.96 231.5,-128.92 228.54,-131.88 225.58,-131.88"/>
<text xml:space="preserve" text-anchor="start" x="174" y="-119.33" font-family="Helvetica,sans-Serif" font-size="9.00">di&#45;registry.ts</text>
</a>
</g>
</g>
<!-- src/lib/services/devices.service.ts -->
<g id="node2" class="node">
<title>src/lib/services/devices.service.ts</title>
<g id="a_node2"><a xlink:href="src/lib/services/devices.service.ts" xlink:title="devices.service.ts">
<path fill="#ddfeff" stroke="black" d="M236.83,-49.88C236.83,-49.88 160.67,-49.88 160.67,-49.88 157.71,-49.88 154.75,-46.92 154.75,-43.96 154.75,-43.96 154.75,-38.04 154.75,-38.04 154.75,-35.08 157.71,-32.12 160.67,-32.12 160.67,-32.12 236.83,-32.12 236.83,-32.12 239.79,-32.12 242.75,-35.08 242.75,-38.04 242.75,-38.04 242.75,-43.96 242.75,-43.96 242.75,-46.92 239.79,-49.88 236.83,-49.88"/>
<text xml:space="preserve" text-anchor="start" x="162.75" y="-37.33" font-family="Helvetica,sans-Serif" font-size="9.00">devices.service.ts</text>
</a>
</g>
</g>
<!-- src/lib/di&#45;registry.ts&#45;&gt;src/lib/services/devices.service.ts -->
<g id="edge1" class="edge">
<title>src/lib/di&#45;registry.ts&#45;&gt;src/lib/services/devices.service.ts</title>
<path fill="none" stroke="#000000" stroke-width="2" stroke-opacity="0.200000" d="M165.56,-117.98C158.11,-115.01 151.46,-110.34 148.25,-103 140.94,-86.31 140.94,-78.69 148.25,-62 149.22,-59.79 150.49,-57.82 151.99,-56.05"/>
<polygon fill="#000000" fill-opacity="0.200000" stroke="#000000" stroke-width="2" stroke-opacity="0.200000" points="153.33,-57.67 156.52,-52.17 150.59,-54.48 153.33,-57.67"/>
</g>
<!-- src/lib/utils/logging.ts -->
<g id="node3" class="node">
<title>src/lib/utils/logging.ts</title>
<g id="a_node3"><a xlink:href="src/lib/utils/logging.ts" xlink:title="logging.ts">
<path fill="#ddfeff" stroke="black" d="M396.58,-71.88C396.58,-71.88 352.67,-71.88 352.67,-71.88 349.71,-71.88 346.75,-68.92 346.75,-65.96 346.75,-65.96 346.75,-60.04 346.75,-60.04 346.75,-57.08 349.71,-54.12 352.67,-54.12 352.67,-54.12 396.58,-54.12 396.58,-54.12 399.54,-54.12 402.5,-57.08 402.5,-60.04 402.5,-60.04 402.5,-65.96 402.5,-65.96 402.5,-68.92 399.54,-71.88 396.58,-71.88"/>
<text xml:space="preserve" text-anchor="start" x="354.75" y="-59.33" font-family="Helvetica,sans-Serif" font-size="9.00">logging.ts</text>
</a>
</g>
</g>
<!-- src/lib/di&#45;registry.ts&#45;&gt;src/lib/utils/logging.ts -->
<g id="edge2" class="edge">
<title>src/lib/di&#45;registry.ts&#45;&gt;src/lib/utils/logging.ts</title>
<path fill="none" stroke="#000000" stroke-width="2" stroke-opacity="0.200000" d="M231.92,-125.65C259.57,-126.55 299.75,-124.49 330.75,-109 343.98,-102.39 355.21,-89.89 362.86,-79.59"/>
<polygon fill="#000000" fill-opacity="0.200000" stroke="#000000" stroke-width="2" stroke-opacity="0.200000" points="364.52,-80.88 366.24,-74.76 361.08,-78.47 364.52,-80.88"/>
</g>
<!-- src/lib/services/devices.service.ts&#45;&gt;src/lib/utils/logging.ts -->
<g id="edge7" class="edge">
<title>src/lib/services/devices.service.ts&#45;&gt;src/lib/utils/logging.ts</title>
<path fill="none" stroke="#000000" stroke-width="2" stroke-opacity="0.200000" d="M230.02,-50.31C238.29,-52.52 247.3,-54.63 255.75,-56 282.91,-60.4 313.98,-62.11 337.4,-62.74"/>
<polygon fill="#000000" fill-opacity="0.200000" stroke="#000000" stroke-width="2" stroke-opacity="0.200000" points="337.23,-64.84 343.27,-62.87 337.32,-60.64 337.23,-64.84"/>
</g>
<!-- src/lib/services/db.service.ts -->
<g id="node4" class="node">
<title>src/lib/services/db.service.ts</title>
<g id="a_node4"><a xlink:href="src/lib/services/db.service.ts" xlink:title="db.service.ts">
<path fill="#ddfeff" stroke="black" d="M316.83,-49.88C316.83,-49.88 261.67,-49.88 261.67,-49.88 258.71,-49.88 255.75,-46.92 255.75,-43.96 255.75,-43.96 255.75,-38.04 255.75,-38.04 255.75,-35.08 258.71,-32.12 261.67,-32.12 261.67,-32.12 316.83,-32.12 316.83,-32.12 319.79,-32.12 322.75,-35.08 322.75,-38.04 322.75,-38.04 322.75,-43.96 322.75,-43.96 322.75,-46.92 319.79,-49.88 316.83,-49.88"/>
<text xml:space="preserve" text-anchor="start" x="263.75" y="-37.33" font-family="Helvetica,sans-Serif" font-size="9.00">db.service.ts</text>
</a>
</g>
</g>
<!-- src/lib/services/devices.service.ts&#45;&gt;src/lib/services/db.service.ts -->
<g id="edge8" class="edge">
<title>src/lib/services/devices.service.ts&#45;&gt;src/lib/services/db.service.ts</title>
<path fill="none" stroke="#000000" stroke-width="2" stroke-opacity="0.200000" d="M243.22,-41C244.38,-41 245.53,-41 246.69,-41"/>
<polygon fill="#000000" fill-opacity="0.200000" stroke="#000000" stroke-width="2" stroke-opacity="0.200000" points="246.41,-43.1 252.41,-41 246.41,-38.9 246.41,-43.1"/>
</g>
<!-- src/lib/services/db.service.ts&#45;&gt;src/lib/utils/logging.ts -->
<g id="edge3" class="edge">
<title>src/lib/services/db.service.ts&#45;&gt;src/lib/utils/logging.ts</title>
<path fill="none" stroke="#000000" stroke-width="2" stroke-opacity="0.200000" d="M323.2,-49.69C327.98,-50.96 332.92,-52.26 337.75,-53.53"/>
<polygon fill="#000000" fill-opacity="0.200000" stroke="#000000" stroke-width="2" stroke-opacity="0.200000" points="337.02,-55.51 343.35,-55.01 338.09,-51.45 337.02,-55.51"/>
</g>
<!-- src/lib/services/devices.js -->
<g id="node5" class="node">
<title>src/lib/services/devices.js</title>
<g id="a_node5"><a xlink:href="src/lib/services/devices.js" xlink:title="devices.js">
<path fill="#ffffcc" stroke="black" d="M221.08,-79.88C221.08,-79.88 176.42,-79.88 176.42,-79.88 173.46,-79.88 170.5,-76.92 170.5,-73.96 170.5,-73.96 170.5,-68.04 170.5,-68.04 170.5,-65.08 173.46,-62.12 176.42,-62.12 176.42,-62.12 221.08,-62.12 221.08,-62.12 224.04,-62.12 227,-65.08 227,-68.04 227,-68.04 227,-73.96 227,-73.96 227,-76.92 224.04,-79.88 221.08,-79.88"/>
<text xml:space="preserve" text-anchor="start" x="178.5" y="-67.33" font-family="Helvetica,sans-Serif" font-size="9.00">devices.js</text>
</a>
</g>
</g>
<!-- src/lib/services/devices.js&#45;&gt;src/lib/di&#45;registry.ts -->
<g id="edge4" class="edge">
<title>src/lib/services/devices.js&#45;&gt;src/lib/di&#45;registry.ts</title>
<path fill="none" stroke="#000000" stroke-width="2" stroke-opacity="0.200000" d="M198.75,-80.34C198.75,-88.5 198.75,-96.66 198.75,-104.82"/>
<polygon fill="#000000" fill-opacity="0.200000" stroke="#000000" stroke-width="2" stroke-opacity="0.200000" points="196.65,-104.64 198.75,-110.64 200.85,-104.64 196.65,-104.64"/>
</g>
<!-- src/lib/services/devices.service.spec.ts -->
<g id="node6" class="node">
<title>src/lib/services/devices.service.spec.ts</title>
<g id="a_node6"><a xlink:href="src/lib/services/devices.service.spec.ts" xlink:title="devices.service.spec.ts">
<path fill="#ddfeff" stroke="black" d="M135.83,-49.88C135.83,-49.88 37.92,-49.88 37.92,-49.88 34.96,-49.88 32,-46.92 32,-43.96 32,-43.96 32,-38.04 32,-38.04 32,-35.08 34.96,-32.12 37.92,-32.12 37.92,-32.12 135.83,-32.12 135.83,-32.12 138.79,-32.12 141.75,-35.08 141.75,-38.04 141.75,-38.04 141.75,-43.96 141.75,-43.96 141.75,-46.92 138.79,-49.88 135.83,-49.88"/>
<text xml:space="preserve" text-anchor="start" x="40" y="-37.33" font-family="Helvetica,sans-Serif" font-size="9.00">devices.service.spec.ts</text>
</a>
</g>
</g>
<!-- src/lib/services/devices.service.spec.ts&#45;&gt;src/lib/di&#45;registry.ts -->
<g id="edge5" class="edge">
<title>src/lib/services/devices.service.spec.ts&#45;&gt;src/lib/di&#45;registry.ts</title>
<path fill="none" stroke="#000000" stroke-width="2" stroke-opacity="0.200000" d="M134.47,-50.23C137.12,-51.86 139.59,-53.77 141.75,-56 158.63,-73.41 138.25,-91.23 154.75,-109 155.81,-110.15 156.97,-111.2 158.21,-112.17"/>
<polygon fill="#000000" fill-opacity="0.200000" stroke="#000000" stroke-width="2" stroke-opacity="0.200000" points="157.12,-113.96 163.34,-115.26 159.28,-110.36 157.12,-113.96"/>
</g>
<!-- src/lib/services/devices.service.spec.ts&#45;&gt;src/lib/services/devices.service.ts -->
<g id="edge6" class="edge">
<title>src/lib/services/devices.service.spec.ts&#45;&gt;src/lib/services/devices.service.ts</title>
<path fill="none" stroke="#000000" stroke-width="2" stroke-opacity="0.200000" d="M142.17,-41C143.32,-41 144.48,-41 145.63,-41"/>
<polygon fill="#000000" fill-opacity="0.200000" stroke="#000000" stroke-width="2" stroke-opacity="0.200000" points="145.39,-43.1 151.39,-41 145.39,-38.9 145.39,-43.1"/>
</g>
<!-- src/lib/services/devices.spec.ts -->
<g id="node7" class="node">
<title>src/lib/services/devices.spec.ts</title>
<g id="a_node7"><a xlink:href="src/lib/services/devices.spec.ts" xlink:title="devices.spec.ts">
<path fill="#ddfeff" stroke="black" d="M120.08,-79.88C120.08,-79.88 53.67,-79.88 53.67,-79.88 50.71,-79.88 47.75,-76.92 47.75,-73.96 47.75,-73.96 47.75,-68.04 47.75,-68.04 47.75,-65.08 50.71,-62.12 53.67,-62.12 53.67,-62.12 120.08,-62.12 120.08,-62.12 123.04,-62.12 126,-65.08 126,-68.04 126,-68.04 126,-73.96 126,-73.96 126,-76.92 123.04,-79.88 120.08,-79.88"/>
<text xml:space="preserve" text-anchor="start" x="55.75" y="-67.33" font-family="Helvetica,sans-Serif" font-size="9.00">devices.spec.ts</text>
</a>
</g>
</g>
<!-- src/lib/services/devices.spec.ts&#45;&gt;src/lib/di&#45;registry.ts -->
<g id="edge9" class="edge">
<title>src/lib/services/devices.spec.ts&#45;&gt;src/lib/di&#45;registry.ts</title>
<path fill="none" stroke="#000000" stroke-width="2" stroke-opacity="0.200000" d="M126.26,-75.94C131.83,-77.84 137.2,-80.44 141.75,-84 151.61,-91.72 145.2,-100.9 154.75,-109 155.76,-109.86 156.83,-110.66 157.93,-111.42"/>
<polygon fill="#000000" fill-opacity="0.200000" stroke="#000000" stroke-width="2" stroke-opacity="0.200000" points="156.81,-113.19 163.07,-114.26 158.84,-109.52 156.81,-113.19"/>
</g>
<!-- src/lib/services/devices.spec.ts&#45;&gt;src/lib/services/devices.js -->
<g id="edge10" class="edge">
<title>src/lib/services/devices.spec.ts&#45;&gt;src/lib/services/devices.js</title>
<path fill="none" stroke="#000000" stroke-width="2" stroke-opacity="0.200000" d="M126.3,-71C137.73,-71 150.21,-71 161.49,-71"/>
<polygon fill="#000000" fill-opacity="0.200000" stroke="#000000" stroke-width="2" stroke-opacity="0.200000" points="161.21,-73.1 167.21,-71 161.21,-68.9 161.21,-73.1"/>
</g>
<!-- src/main.ts -->
<g id="node8" class="node">
<title>src/main.ts</title>
<g id="a_node8"><a xlink:href="src/main.ts" xlink:title="main.ts">
<path fill="#ddfeff" stroke="black" d="M107.96,-183.88C107.96,-183.88 65.79,-183.88 65.79,-183.88 62.83,-183.88 59.88,-180.92 59.88,-177.96 59.88,-177.96 59.88,-172.04 59.88,-172.04 59.88,-169.08 62.83,-166.12 65.79,-166.12 65.79,-166.12 107.96,-166.12 107.96,-166.12 110.92,-166.12 113.88,-169.08 113.88,-172.04 113.88,-172.04 113.88,-177.96 113.88,-177.96 113.88,-180.92 110.92,-183.88 107.96,-183.88"/>
<text xml:space="preserve" text-anchor="start" x="72.25" y="-171.32" font-family="Helvetica,sans-Serif" font-size="9.00">main.ts</text>
</a>
</g>
</g>
<!-- src/main.ts&#45;&gt;src/lib/di&#45;registry.ts -->
<g id="edge11" class="edge">
<title>src/main.ts&#45;&gt;src/lib/di&#45;registry.ts</title>
<path fill="none" stroke="#000000" stroke-width="2" stroke-opacity="0.200000" d="M107.52,-165.7C125.02,-157.42 150.8,-145.22 170.33,-135.98"/>
<polygon fill="#000000" fill-opacity="0.200000" stroke="#000000" stroke-width="2" stroke-opacity="0.200000" points="171.02,-137.98 175.54,-133.51 169.22,-134.18 171.02,-137.98"/>
</g>
</g>
</svg>
